<?xml version="1.0" encoding="UTF-8"?>
<svg id="Laag_1" data-name="Laag 1" xmlns="http://www.w3.org/2000/svg" viewBox="0 0 181.42 133.68">
  <defs>
    <style>
      .cls-1 {
        fill: #ef7b68;
      }
    </style>
  </defs>
  <path class="cls-1" d="M0,5.81h26.02l28.02,36.56s10.01,7.9,0,13.46c0,0-30.45,10.7-27.45,42.42,3.08,32.53,34.59,35.4,34.59,35.4h-21.16s-17.2,1.55-32.88-16.09c0,0-3.68-3.8-5.77-13.06-2.38-10.57-.99-21.78,4.33-31.17,4.04-7.13,10.77-14.6,21.79-17.41,0,0,9.07-3.61,1.17-12.2L0,5.81Z"/>
  <path class="cls-1" d="M48.37,121.75s23.11,15.95,39.06-14.85l30.1-79S125.59.22,151.21.04h-24.37s-24.37-2.02-33.33,22.36l-26.34,69.29s-8.04,23.62-18.81,30.06h0Z"/>
  <path class="cls-1" d="M181.42,133.47h-25.63l-30.1-38.72s-10.63-12.75,1.6-22.76c1.33-1.09,2.86-1.88,4.5-2.32,5.25-1.39,20.33-7.37,21.31-30.26,0,0,.15-18.9-14.45-27.6,0,0,13.12-10.52,29.81,2.44,16.69,12.96,9.69,35.37,9.69,35.37,0,0-4.24,16.45-20.82,20.17-.36.08-.72.19-1.06.36-2.53,1.23-12.44,7.1-6.48,21.08.31.72.72,1.38,1.19,2.01l30.44,40.23h0Z"/>
</svg>